<svg id="Calque_1" data-name="Calque 1" xmlns="http://www.w3.org/2000/svg" xmlns:xlink="http://www.w3.org/1999/xlink" viewBox="0 0 234.57 84.49"><defs><style>.cls-1{opacity:0.26;}.cls-2{fill:#9d9d9c;}.cls-2,.cls-3,.cls-4{fill-rule:evenodd;}.cls-3{fill:url(#Dégradé_sans_nom_16);}.cls-4{fill:url(#Dégradé_sans_nom_25);}.cls-5{fill:#e5e4e4;}.cls-6{fill:#fff;}</style><linearGradient id="Dégradé_sans_nom_16" x1="22.5" y1="31.03" x2="97.5" y2="31.03" gradientTransform="matrix(-1, 0, 0, 1, 101.79, 0)" gradientUnits="userSpaceOnUse"><stop offset="0" stop-color="#bababa"/><stop offset="1" stop-color="#f7f7f7"/></linearGradient><linearGradient id="Dégradé_sans_nom_25" x1="35.1" y1="44.51" x2="104.33" y2="44.51" gradientUnits="userSpaceOnUse"><stop offset="0" stop-color="#e8e8e8"/><stop offset="1" stop-color="#fcfcfc"/></linearGradient></defs><g class="cls-1"><path class="cls-2" d="M68,40a29,29,0,0,1,10.19-.59,20.46,20.46,0,0,1,8.79,2.85l6.77,4.55L101.36,52c3,2,4.36,4.39,4.17,6.69s-2.22,4.69-6,6.16c-4,1.54-8.19,3.16-12.49,4.8l-13.81,5.3a29.29,29.29,0,0,1-15.36,1.33c-4.88-.89-8.95-3-11-5.95l-5.19-7.53-4.48-6.49c-1.45-2.1-1-4.38.85-6.34a17.52,17.52,0,0,1,8.49-4.47l11.12-2.82L68,40Zm-8,4.81-11.35,3c-4.85,1.27-7.44,4.28-5.52,6.77,1.52,2,3.13,4.07,4.82,6.24L53.51,68c2.74,3.54,10.08,4.83,15.91,2.71l13.47-4.91,12.23-4.46c4.63-1.69,5.17-5.27,1.55-7.84q-3.9-2.79-7.5-5.33L82.55,43.5c-2.67-1.9-8-2.53-12-1.46Z"/><path class="cls-2" d="M39.34,31.79a37.58,37.58,0,0,1,9.73-.41,27.16,27.16,0,0,1,8.71,2l7.36,3.39,8.92,4.12c3.64,1.68,5.85,3.79,6.34,5.87.54,2.28-1,4.5-5,6L61.81,57.89,45.34,64.06a38.33,38.33,0,0,1-19.63,1.65C19.64,64.6,15,62.07,13.18,58.65c-1.52-2.9-2.9-5.53-4.15-7.93-1.16-2.21-2.22-4.23-3.19-6.1S6,40.86,8.4,39.25a26.06,26.06,0,0,1,9.52-3.49l11.31-2.09,10.11-1.88Zm-8,3.48-11.72,2.3c-5.16,1-8.49,3.47-7,5.59,1.2,1.74,2.52,3.64,3.94,5.68l5.09,7.33c2.74,3.95,11.66,5.44,18.91,3l15.77-5.33,13.2-4.48c4.76-1.61,4.42-4.87,0-7.12l-8.73-4.36L53.63,34.3c-2.75-1.39-7.92-1.84-11.82-1.07Z"/><path class="cls-2" d="M36.34,53.22a4.36,4.36,0,0,0,.82,3.05l4.48,6.49L43.87,66h7V64.58l-2.9-3.75c-1.69-2.17-3.3-4.26-4.82-6.24a2.84,2.84,0,0,1-.61-1.37Z"/></g><path class="cls-3" d="M4.62,25c1,2.74,2,5.7,3.19,8.94,1.25,3.51,2.64,7.37,4.16,11.63,1.79,5,6.45,8.71,12.52,10.34a27,27,0,0,0,17.35-1.31l-1.42-3q-1.14-2.43-2.23-4.74c-7,2.81-15.13.55-17.73-4.93Q17.68,36,15.37,31.14q-2.13-4.49-3.94-8.33c-1.46-3.11,1.87-6.71,7-8.19l11.73-3.38,10.42-3c3.89-1.12,9.06-.46,11.82,1.57l7.15,5.25,5.24,3.84c1.13.83,2.3,1.68,3.48,2.56l.07.05c4.41,3.29,4.72,8,0,10.38L55.14,38.46l-11,5.44c.83,1.57,1.67,3.18,2.54,4.82.45.84.9,1.69,1.35,2.56L60.59,44.4l13.63-7.51c4-2.17,5.5-5.43,5-8.77-.43-2.69-2.21-5.41-5.12-7.7-.39-.31-.8-.61-1.22-.9l-3.16-2.14-5.77-3.9-7.35-5a20.37,20.37,0,0,0-8.71-3,26.06,26.06,0,0,0-9.73.6L28,8.89,16.7,12a21.74,21.74,0,0,0-9.52,5.12C4.8,19.44,3.66,22.27,4.62,25Z"/><path class="cls-4" d="M35.42,40.63c0,.16.09.31.15.47a8,8,0,0,0,.37.92l2.25,4.79q1.1,2.31,2.23,4.74l1.42,3,.81,1.72,3,6.3a16.56,16.56,0,0,0,11,8.72A20.64,20.64,0,0,0,72,69.36l13.8-7.77,12.49-7a11.08,11.08,0,0,0,6-9,12.79,12.79,0,0,0-4.17-9.8l-7.65-7.54-6.78-6.67a16.42,16.42,0,0,0-8.79-4.18,20.67,20.67,0,0,0-7.23.05l3.16,2.14c.42.29.83.59,1.22.9a10.83,10.83,0,0,1,7.27,2.89c2.12,2.21,4.31,4.51,6.62,6.91L95.46,38c3.61,3.77,3.08,9-1.56,11.49L81.68,56.06q-6.51,3.48-13.48,7.19c-5.83,3.12-13.17,1.23-15.91-4l-2.67-5.06c-.52-1-1-2-1.55-2.94s-.9-1.72-1.35-2.56c-.87-1.64-1.71-3.25-2.54-4.82L41.9,39.57c0-.09-.08-.17-.12-.25a2.72,2.72,0,0,1-.11-.25,5.3,5.3,0,0,1-.3-1,1.87,1.87,0,0,1,0-.25.83.83,0,0,1,0-.22,0,0,0,0,1,0,0c-.31-3.13,2.15-6.38,6.13-7.92l11.36-4.4,9.58-3.72-.07-.05c-1.18-.88-2.35-1.73-3.48-2.56L56.4,22.05,45.29,26.19a16.81,16.81,0,0,0-8.49,6.54,10.6,10.6,0,0,0-1.67,4.83A8.67,8.67,0,0,0,35.42,40.63Z"/><path class="cls-5" d="M109.67,39.81v-18h3.45a4.19,4.19,0,0,1,3,1.24,4.11,4.11,0,0,1,1.24,3,4.93,4.93,0,0,1-.68,2.34,6.55,6.55,0,0,1,2.87,2.32,5.57,5.57,0,0,1,1,3.19,5.69,5.69,0,0,1-.8,3A5.93,5.93,0,0,1,117.58,39a5.62,5.62,0,0,1-3,.81Zm4.77-12.1a2.12,2.12,0,0,0,.66-1.57A2.22,2.22,0,0,0,112.89,24H112v4.38h.92A2.15,2.15,0,0,0,114.44,27.71Zm2.72,8.73a3.42,3.42,0,0,0,1.06-2.54,3.48,3.48,0,0,0-1.06-2.54,3.45,3.45,0,0,0-2.54-1H112V37.5h2.65A3.35,3.35,0,0,0,117.16,36.44Z"/><path class="cls-5" d="M140.16,38.58a9,9,0,0,1-3.25-3.25,9.15,9.15,0,0,1,0-9.06A9.25,9.25,0,0,1,140.16,23a8.63,8.63,0,0,1,4.5-1.21,8.16,8.16,0,0,1,4.93,1.46L148.15,25a6,6,0,0,0-3.49-1,6.41,6.41,0,0,0-4.73,2,6.74,6.74,0,0,0,0,9.5,6.44,6.44,0,0,0,4.73,2,6.94,6.94,0,0,0,3.22-.82V32.93h-4.79v-2.3h7.07V37.9a8.37,8.37,0,0,1-5.5,1.91A8.55,8.55,0,0,1,140.16,38.58Z"/><path class="cls-6" d="M158.19,39.81v-18h2.74A8.7,8.7,0,0,1,165.45,23a9.2,9.2,0,0,1,3.23,3.27,9.08,9.08,0,0,1,0,9.06,9,9,0,0,1-3.23,3.25,8.62,8.62,0,0,1-4.52,1.23Zm7.48-4.28a6.71,6.71,0,0,0,0-9.46,7.1,7.1,0,0,0-5.17-2V37.52A7.17,7.17,0,0,0,165.67,35.53Z"/><path class="cls-6" d="M171.44,39.81v-18h2.3v18Z"/><path class="cls-6" d="M179.75,38.58a8.89,8.89,0,0,1-3.25-3.25,9.08,9.08,0,0,1,0-9.06A9.09,9.09,0,0,1,179.75,23a8.57,8.57,0,0,1,4.49-1.21,8.19,8.19,0,0,1,4.94,1.46L187.73,25a6,6,0,0,0-3.49-1,6.71,6.71,0,0,0-6.68,6.73,6.69,6.69,0,0,0,6.68,6.72,6.94,6.94,0,0,0,3.22-.82V32.93h-4.79v-2.3h7.07V37.9a8.37,8.37,0,0,1-5.5,1.91A8.49,8.49,0,0,1,179.75,38.58Z"/><path class="cls-6" d="M191.29,39.81v-18h2.3v18Z"/><path class="cls-6" d="M199.29,39.81V24.09h-4.14v-2.3h10.58v2.3h-4.15V39.81Z"/><path class="cls-6" d="M218.33,39.81l-2.25-6.31h-7.62l-2.24,6.31h-2.45l6.47-18h4.07l6.47,18ZM212.27,22.9l-3,8.32h6Z"/><path class="cls-6" d="M222.18,39.81v-18h2.3V37.5h6.18v2.31Z"/><path class="cls-6" d="M132.49,39.86l-1.81-2.52a10,10,0,0,1-.81.81l0,0a7.11,7.11,0,0,1-2,1.33,5.11,5.11,0,0,1-2.19.56A3.58,3.58,0,0,1,123,38.82a4.36,4.36,0,0,1-1.12-3,4.86,4.86,0,0,1,.55-2.33,7.64,7.64,0,0,1,1.8-2.12l0,0a10.75,10.75,0,0,1,1.27-1A7,7,0,0,1,123.72,26,4.37,4.37,0,0,1,124.8,23a4,4,0,0,1,5.6,0,4.08,4.08,0,0,1,1.1,2.93c0,1.61-.92,3.18-2.74,4.7l-.15.15,2.19,3a12.81,12.81,0,0,0,1.68-3h2.23a17.58,17.58,0,0,1-2.54,4.83l3.16,4.32ZM128.8,36l.5-.54-2.53-3.45-1,.82a3.73,3.73,0,0,0-1.74,2.81,1.78,1.78,0,0,0,.56,1.33,1.9,1.9,0,0,0,1.38.55,3.1,3.1,0,0,0,1.41-.42A5.28,5.28,0,0,0,128.8,36Zm-1.45-7.1.85-.72a2.93,2.93,0,0,0,1.19-2.3,2,2,0,0,0-.5-1.35,1.73,1.73,0,0,0-2.47,0,1.77,1.77,0,0,0-.48,1.26,4,4,0,0,0,.38,1.58A5.68,5.68,0,0,0,127.35,28.94Z"/><path class="cls-5" d="M110,60.6a.26.26,0,0,1-.27-.27v-10a.28.28,0,0,1,.27-.28h1.83a2.89,2.89,0,0,1,2.09.75,2.49,2.49,0,0,1,.79,1.9,2.36,2.36,0,0,1-1.36,2.22c-.16.08-.16.2,0,.27A2.63,2.63,0,0,1,115,57.69a2.73,2.73,0,0,1-.89,2.1,3.32,3.32,0,0,1-2.33.81Zm1.73-5.91a1.93,1.93,0,1,0,0-3.85h-1a.15.15,0,0,0-.16.16v3.53a.15.15,0,0,0,.16.16Zm0,5.13a2.19,2.19,0,1,0,0-4.36h-1a.15.15,0,0,0-.16.16v4a.15.15,0,0,0,.16.16Z"/><path class="cls-5" d="M116.83,54.59a.28.28,0,0,1,.26-.27h.28a.26.26,0,0,1,.27.27v3.73a1.66,1.66,0,1,0,3.31,0V54.59a.27.27,0,0,1,.27-.27h.28a.29.29,0,0,1,.27.27v3.73a2.47,2.47,0,0,1-.71,1.82,2.39,2.39,0,0,1-1.76.69,2.45,2.45,0,0,1-1.78-.69,2.5,2.5,0,0,1-.69-1.82Z"/><path class="cls-5" d="M123.5,59.78c-.14-.14-.12-.26,0-.39l.1-.09a.3.3,0,0,1,.43,0,1.77,1.77,0,0,0,1.45.76A1,1,0,0,0,126.59,59c0-.6-.43-1-1.3-1.34-1.11-.49-1.67-1.12-1.67-1.9a1.74,1.74,0,0,1,1.9-1.7,2.42,2.42,0,0,1,1.6.56c.13.1.15.25,0,.42l-.09.1c-.11.14-.22.15-.39,0a1.65,1.65,0,0,0-1-.39c-.77,0-1.2.37-1.2.93s.4.9,1.22,1.23c1.08.48,1.77,1,1.77,2a1.82,1.82,0,0,1-1.91,1.85A2.38,2.38,0,0,1,123.5,59.78Z"/><path class="cls-5" d="M129.18,52a.67.67,0,0,1,0-.91.65.65,0,0,1,.92.91A.68.68,0,0,1,129.18,52Zm.32,8.61a.24.24,0,0,1-.26-.27V54.59a.26.26,0,0,1,.26-.27h.28a.28.28,0,0,1,.27.27v5.74a.26.26,0,0,1-.27.27Z"/><path class="cls-5" d="M132.7,60.6a.29.29,0,0,1-.27-.27V54.59a.29.29,0,0,1,.27-.27H133a.26.26,0,0,1,.28.27v.51c0,.1.12.12.19,0a2.41,2.41,0,0,1,1.93-1,2,2,0,0,1,2,2.18v4.06a.24.24,0,0,1-.26.27h-.28a.26.26,0,0,1-.27-.27V56.39c0-1-.52-1.47-1.35-1.47a2.23,2.23,0,0,0-1.88,1.36.87.87,0,0,0-.07.3v3.75a.28.28,0,0,1-.28.27Z"/><path class="cls-5" d="M139.87,55.08a3.11,3.11,0,0,1,2.33-1,3.19,3.19,0,0,1,3.19,3.15.25.25,0,0,1-.29.29h-5.24c-.08,0-.1,0-.1.1a2.51,2.51,0,0,0,.76,1.71,2.43,2.43,0,0,0,1.74.71,2.35,2.35,0,0,0,2-1.07.28.28,0,0,1,.4-.07l.16.07c.19.11.22.23.12.39a3.08,3.08,0,0,1-2.72,1.46,3.21,3.21,0,0,1-2.37-1,3.47,3.47,0,0,1,0-4.77Zm.09,1.73h4.43c.07,0,.1-.05.1-.14a2.29,2.29,0,0,0-2.29-1.83,2.4,2.4,0,0,0-2.34,1.83C139.84,56.76,139.87,56.81,140,56.81Z"/><path class="cls-5" d="M146.68,59.78a.23.23,0,0,1,0-.39l.1-.09a.3.3,0,0,1,.43,0,1.77,1.77,0,0,0,1.45.76A1,1,0,0,0,149.77,59c0-.6-.43-1-1.3-1.34-1.11-.49-1.67-1.12-1.67-1.9a1.74,1.74,0,0,1,1.91-1.7,2.42,2.42,0,0,1,1.59.56c.14.1.15.25,0,.42l-.09.1c-.1.14-.22.15-.39,0a1.65,1.65,0,0,0-1.05-.39c-.76,0-1.19.37-1.19.93s.4.9,1.21,1.23c1.08.48,1.77,1,1.77,2a1.82,1.82,0,0,1-1.9,1.85A2.38,2.38,0,0,1,146.68,59.78Z"/><path class="cls-5" d="M151.87,59.78a.23.23,0,0,1,0-.39l.1-.09a.29.29,0,0,1,.43,0,1.78,1.78,0,0,0,1.45.76A1,1,0,0,0,155,59c0-.6-.43-1-1.3-1.34-1.11-.49-1.67-1.12-1.67-1.9a1.74,1.74,0,0,1,1.91-1.7,2.44,2.44,0,0,1,1.6.56c.13.1.14.25,0,.42l-.09.1c-.1.14-.22.15-.38,0a1.67,1.67,0,0,0-1-.39c-.77,0-1.2.37-1.2.93s.4.9,1.21,1.23c1.08.48,1.78,1,1.78,2a1.83,1.83,0,0,1-1.91,1.85A2.39,2.39,0,0,1,151.87,59.78Z"/><path class="cls-5" d="M161.92,56.85a10.09,10.09,0,0,1,1.54-1.78.18.18,0,0,0,0-.23A4.6,4.6,0,0,1,162.17,52a2.14,2.14,0,0,1,.59-1.55,2.12,2.12,0,0,1,3,0,2.1,2.1,0,0,1,.6,1.53c0,1-.51,1.79-1.7,2.94a.14.14,0,0,0,0,.21l1.7,2.28c.1.14.21.12.3,0l1.1-1.91a.38.38,0,0,1,.33-.19h.3a.23.23,0,0,1,.19.36l-1.51,2.53a.15.15,0,0,0,0,.17l1.41,1.86a.22.22,0,0,1-.19.37H168a.34.34,0,0,1-.29-.13l-1-1.34c-.09-.12-.18-.12-.27,0a3.08,3.08,0,0,1-2.64,1.68,2.32,2.32,0,0,1-2.36-2.39A2.94,2.94,0,0,1,161.92,56.85Zm.84,2.73a1.48,1.48,0,0,0,1.12.47c.83,0,1.41-.45,2.16-1.61a.26.26,0,0,0,0-.21l-1.86-2.49c-.1-.15-.24-.15-.4,0-1.08,1.09-1.49,1.86-1.49,2.65A1.59,1.59,0,0,0,162.76,59.58ZM164,54.29c.07.12.16.12.25,0,1-1,1.33-1.57,1.33-2.29A1.33,1.33,0,1,0,163,52,4.5,4.5,0,0,0,164,54.29Z"/><path class="cls-5" d="M176.06,51.42A5.33,5.33,0,0,1,180,49.83a5.5,5.5,0,0,1,3.82,1.46.31.31,0,0,1,0,.42l-.2.19c-.11.12-.23.12-.37,0A4.69,4.69,0,0,0,180,50.66,4.48,4.48,0,0,0,176.67,52a4.56,4.56,0,0,0-1.34,3.33,4.61,4.61,0,0,0,1.32,3.31A4.4,4.4,0,0,0,179.91,60a4.2,4.2,0,0,0,4.29-3.66c0-.1,0-.16-.14-.16h-6.18a.29.29,0,0,1-.27-.29v-.25a.29.29,0,0,1,.27-.27h6.94c.19,0,.29.09.29.28a5.11,5.11,0,0,1-5.2,5.18A5.25,5.25,0,0,1,176,59.24a5.65,5.65,0,0,1,0-7.82Z"/><path class="cls-5" d="M187.32,59.85a3.3,3.3,0,0,1-.95-2.4,3.24,3.24,0,0,1,.95-2.37,3.11,3.11,0,0,1,2.32-1,2.86,2.86,0,0,1,2.4,1.2.1.1,0,0,0,.2,0v-.68a.25.25,0,0,1,.27-.25h.25a.27.27,0,0,1,.27.27v5.74a.25.25,0,0,1-.27.27h-.25a.25.25,0,0,1-.27-.25v-.68a.1.1,0,0,0-.2,0,2.86,2.86,0,0,1-2.4,1.2A3.14,3.14,0,0,1,187.32,59.85Zm4.15-.57a2.55,2.55,0,0,0,.74-1.83,2.49,2.49,0,0,0-.74-1.81,2.48,2.48,0,0,0-3.55,0,2.51,2.51,0,0,0-.72,1.81,2.58,2.58,0,0,0,.72,1.83,2.48,2.48,0,0,0,3.55,0Z"/><path class="cls-5" d="M196.42,60.6a.25.25,0,0,1-.27-.27V55.26a.15.15,0,0,0-.16-.16h-1.13a.29.29,0,0,1-.26-.27v-.24a.28.28,0,0,1,.26-.27H196a.15.15,0,0,0,.16-.17V51.29a.26.26,0,0,1,.27-.27h.28a.28.28,0,0,1,.26.27v2.86a.15.15,0,0,0,.17.17h1.42a.26.26,0,0,1,.26.27v.24a.27.27,0,0,1-.26.27h-1.42a.15.15,0,0,0-.17.16v5.07a.26.26,0,0,1-.26.27Z"/><path class="cls-5" d="M200.6,55.08a3.11,3.11,0,0,1,2.32-1,3.19,3.19,0,0,1,3.2,3.15c0,.2-.1.29-.3.29h-5.23c-.08,0-.11,0-.11.1a2.57,2.57,0,0,0,.77,1.71,2.43,2.43,0,0,0,1.73.71A2.32,2.32,0,0,0,205,59a.29.29,0,0,1,.4-.07l.17.07c.19.11.22.23.12.39A3.1,3.1,0,0,1,203,60.83a3.21,3.21,0,0,1-2.36-1,3.47,3.47,0,0,1,0-4.77Zm.09,1.73h4.42c.08,0,.11-.05.11-.14a2.3,2.3,0,0,0-2.3-1.83,2.4,2.4,0,0,0-2.33,1.83C200.57,56.76,200.6,56.81,200.69,56.81Z"/><path class="cls-5" d="M206.73,54.6a.19.19,0,0,1,.19-.28h.38a.31.31,0,0,1,.3.21l1.66,4.27c0,.14.2.12.25,0l1.55-4.2a.24.24,0,0,1,.46,0l1.55,4.2c.05.13.21.15.25,0L215,54.53a.29.29,0,0,1,.3-.21h.34a.19.19,0,0,1,.19.28l-2.38,6a.24.24,0,0,1-.46,0l-1.57-4.23c-.06-.14-.21-.14-.26,0l-1.56,4.23a.25.25,0,0,1-.47,0Z"/><path class="cls-5" d="M217.36,59.85a3.33,3.33,0,0,1-.94-2.4,3.27,3.27,0,0,1,.94-2.37,3.13,3.13,0,0,1,2.33-1,2.85,2.85,0,0,1,2.39,1.2.11.11,0,0,0,.21,0v-.68a.24.24,0,0,1,.27-.25h.25a.26.26,0,0,1,.26.27v5.74a.24.24,0,0,1-.26.27h-.25a.24.24,0,0,1-.27-.25v-.68a.11.11,0,0,0-.21,0,2.85,2.85,0,0,1-2.39,1.2A3.16,3.16,0,0,1,217.36,59.85Zm4.16-.57a2.55,2.55,0,0,0,.74-1.83,2.49,2.49,0,0,0-.74-1.81,2.48,2.48,0,0,0-3.55,0,2.47,2.47,0,0,0-.72,1.81,2.54,2.54,0,0,0,.72,1.83,2.48,2.48,0,0,0,3.55,0Z"/><path class="cls-5" d="M225.62,63.9a.2.2,0,0,1-.19-.3l1.4-3.13a.21.21,0,0,0,0-.24l-2.45-5.6a.22.22,0,0,1,.2-.31h.36a.28.28,0,0,1,.28.21l2,4.54a.13.13,0,0,0,.25,0l2-4.54a.27.27,0,0,1,.29-.21H230a.22.22,0,0,1,.21.31l-4,9.08a.29.29,0,0,1-.28.19Z"/></svg>